<?xml version="1.0" standalone="no"?>
<!DOCTYPE svg PUBLIC "-//W3C//DTD SVG 20010904//EN"
 "http://www.w3.org/TR/2001/REC-SVG-20010904/DTD/svg10.dtd">
<svg version="1.0" xmlns="http://www.w3.org/2000/svg"
 width="700.000000pt" height="700.000000pt" viewBox="0 0 700.000000 700.000000"
 preserveAspectRatio="xMidYMid meet">
<metadata>
Created by potrace 1.14, written by Peter Selinger 2001-2017
</metadata>
<g transform="translate(0.000000,700.000000) scale(0.100000,-0.100000)"
fill="#000000" stroke="none">
<path d="M3220 6994 c-182 -20 -243 -29 -360 -50 -786 -142 -1522 -571 -2041
-1189 -381 -455 -640 -991 -753 -1560 -54 -276 -61 -347 -61 -695 0 -348 7
-419 61 -695 198 -995 833 -1864 1731 -2366 383 -215 773 -343 1258 -416 152
-22 704 -26 855 -5 823 113 1504 445 2065 1007 493 492 830 1119 959 1783 55
283 61 346 61 692 0 346 -6 409 -61 692 -148 762 -575 1482 -1179 1989 -517
433 -1119 699 -1800 795 -114 15 -640 29 -735 18z m690 -249 c274 -37 552
-108 789 -201 279 -110 611 -304 856 -500 141 -113 376 -348 489 -489 260
-324 469 -720 586 -1108 193 -637 184 -1337 -25 -1972 -120 -367 -309 -714
-562 -1030 -111 -140 -346 -375 -488 -489 -586 -469 -1312 -726 -2054 -726
-1234 0 -2371 701 -2920 1800 -141 284 -224 519 -281 800 -54 267 -64 370 -64
670 0 300 10 403 64 670 99 489 332 980 656 1385 113 141 348 376 489 489 510
409 1130 658 1780 716 142 12 548 4 685 -15z"/>
<path d="M3258 5745 c-728 -100 -1332 -640 -1512 -1353 -47 -183 -56 -301 -56
-721 l0 -388 -70 -12 c-178 -32 -320 -162 -366 -336 -11 -39 -14 -167 -14
-567 0 -478 1 -521 19 -577 26 -84 60 -137 125 -199 66 -63 156 -107 246 -121
36 -6 167 -11 292 -11 l227 0 4 1342 c3 1327 3 1344 24 1428 68 274 173 468
355 656 192 198 393 313 668 382 96 24 122 27 300 27 178 0 204 -3 300 -27
275 -69 476 -184 668 -382 182 -188 287 -382 355 -656 21 -84 21 -102 24
-1427 l4 -1343 227 0 c267 0 333 9 427 55 116 56 198 151 235 274 19 59 20 94
20 581 0 490 -1 521 -20 583 -52 168 -185 285 -362 318 l-66 12 -5 441 c-5
461 -8 497 -56 683 -164 636 -689 1152 -1330 1304 -200 48 -461 61 -663 34z"/>
<path d="M2370 2370 l0 -1130 340 0 340 0 0 1130 0 1130 -340 0 -340 0 0
-1130z"/>
<path d="M3950 2370 l0 -1130 340 0 340 0 0 1130 0 1130 -340 0 -340 0 0
-1130z"/>
</g>
</svg>
